<?xml version="1.0" encoding="UTF-8"?>
<svg width="32px" height="32px" viewBox="0 0 32 32" version="1.1" xmlns="http://www.w3.org/2000/svg">
    <g fill="#007bff">
        <!-- Bot head base -->
        <path d="M16,2 C8.268,2 2,8.268 2,16 C2,23.732 8.268,30 16,30 C23.732,30 30,23.732 30,16 C30,8.268 23.732,2 16,2 Z"/>
        
        <!-- Bot features in white -->
        <g fill="#FFFFFF">
            <!-- Antenna -->
            <path d="M16,5 L16,8 M14,5 L18,5" stroke="#FFFFFF" stroke-width="2"/>
            
            <!-- Face plate -->
            <path d="M8,11 L24,11 L24,23 C24,24.657 22.657,26 21,26 L11,26 C9.343,26 8,24.657 8,23 L8,11 Z"/>
            
            <!-- Eyes -->
            <path fill="#007bff" d="M12,14 L15,14 L15,17 L12,17 Z M17,14 L20,14 L20,17 L17,17 Z"/>
            
            <!-- Mouth -->
            <path fill="#007bff" d="M13,19 L19,19 L19,21 L13,21 Z"/>
        </g>
        
        <!-- Digital circuits -->
        <path fill="#007bff" stroke="#FFFFFF" stroke-width="0.5" d="M10,12 L11,12 M21,12 L22,12 M10,25 L11,25 M21,25 L22,25"/>
    </g>
</svg>
